<svg xmlns="http://www.w3.org/2000/svg" width="121" height="32" viewBox="0 0 121 32" fill="none">
    <g clip-path="url(#clip0_24021_236717)">
        <path
            d="M61.5227 10.8221H64.7615V13.5487L64.8204 13.4663C65.307 12.647 65.994 11.9649 66.8169 11.4842C67.6459 11.0028 68.5896 10.7542 69.5483 10.7646C71.2122 10.7646 72.5238 11.1953 73.4831 12.0568C74.4424 12.9183 74.922 14.2104 74.922 15.933V26.3266H71.5101V16.8139C71.4707 15.6209 71.2163 14.7547 70.7468 14.2153C70.2758 13.6768 69.4917 13.4074 68.6083 13.4074C68.083 13.3988 67.5621 13.5041 67.0813 13.7159C66.6421 13.913 66.2512 14.2037 65.936 14.5676C65.6144 14.9443 65.3654 15.3774 65.2018 15.845C65.0238 16.3444 64.9343 16.8711 64.9374 17.4014V26.3266H61.5232L61.5227 10.8221Z"
            fill="#003366"></path>
        <path
            d="M79.7569 21.259C79.8511 22.2119 80.2131 22.879 80.8431 23.2605C81.5282 23.6566 82.3099 23.8546 83.1009 23.8322C83.4497 23.8296 83.7979 23.806 84.1438 23.7615C84.5206 23.7176 84.8904 23.6263 85.2444 23.49C85.5702 23.3685 85.8601 23.167 86.0876 22.904C86.3154 22.6175 86.4231 22.2537 86.3878 21.8894C86.3845 21.6959 86.3423 21.5052 86.2637 21.3284C86.1851 21.1517 86.0717 20.9926 85.9303 20.8606C85.6107 20.574 85.2363 20.3552 84.8297 20.2173C84.331 20.0418 83.82 19.9034 83.3008 19.8031C82.7293 19.6887 82.1485 19.5649 81.5584 19.4316C80.9639 19.3026 80.377 19.1404 79.8007 18.9456C79.2596 18.7664 78.7489 18.5061 78.2859 18.1737C77.8367 17.8486 77.4697 17.4228 77.2143 16.9305C76.93 16.3487 76.7926 15.706 76.8141 15.0588C76.7892 14.3417 76.9946 13.6356 77.4001 13.0437C77.791 12.4998 78.2989 12.0505 78.8864 11.7289C79.5105 11.387 80.1867 11.1505 80.8878 11.0288C81.5807 10.8993 82.2838 10.8323 82.9886 10.8287C83.7243 10.826 84.4578 10.9075 85.1749 11.0717C85.8442 11.2231 86.4823 11.4889 87.0612 11.8574C87.6252 12.2218 88.103 12.7046 88.4615 13.2723C88.8521 13.91 89.0917 14.6286 89.162 15.3731H85.7586C85.6062 14.5919 85.249 14.0678 84.687 13.8009C84.0819 13.5251 83.4226 13.3883 82.7576 13.4006C82.4853 13.4036 82.2133 13.4227 81.9432 13.4579C81.6403 13.4934 81.3429 13.5653 81.0574 13.6721C80.7923 13.7688 80.5529 13.9247 80.3571 14.1278C80.2601 14.2335 80.1849 14.3573 80.1358 14.4921C80.0868 14.627 80.0648 14.7702 80.0712 14.9135C80.0647 15.096 80.0984 15.2777 80.17 15.4457C80.2416 15.6137 80.3494 15.7639 80.4856 15.8855C80.8048 16.1581 81.1735 16.3666 81.5716 16.4996C82.0707 16.6758 82.5823 16.8145 83.1021 16.9145C83.6735 17.0284 84.2641 17.1522 84.874 17.2858C85.4644 17.4191 86.0452 17.581 86.6164 17.7716C87.1625 17.9493 87.6781 18.2095 88.1455 18.5432C88.5935 18.868 88.9643 19.2877 89.2315 19.7723C89.524 20.3365 89.6667 20.9662 89.6461 21.6014C89.671 22.3876 89.4621 23.1634 89.0457 23.8308C88.6472 24.4389 88.1143 24.9474 87.4881 25.317C86.8279 25.7068 86.1088 25.9868 85.3588 26.1461C84.5987 26.315 83.8226 26.4012 83.044 26.4032C82.172 26.4107 81.3027 26.3052 80.4579 26.0893C79.7176 25.9033 79.0193 25.5784 78.4004 25.1317C77.8256 24.7111 77.3561 24.163 77.0286 23.5305C76.6783 22.8245 76.4972 22.0467 76.4997 21.2585L79.7569 21.259Z"
            fill="#003366"></path>
        <path d="M91.438 26.3267H94.8494V10.8221L91.438 9.58051V26.3267Z" fill="#003366"></path>
        <path
            d="M116.955 10.8221L112.815 21.7406L108.843 10.8221H102.59V9.23885C102.59 8.60027 102.755 8.1711 103.084 7.95133C103.436 7.72505 103.849 7.61017 104.267 7.62168C104.562 7.61931 104.857 7.63424 105.151 7.66642C105.392 7.69517 105.631 7.74017 105.866 7.8011V5.13589C105.075 4.96854 104.267 4.89817 103.459 4.92633C102.92 4.92426 102.383 4.97952 101.856 5.09115C101.355 5.19709 100.887 5.42337 100.493 5.75045C100.059 6.13013 99.7292 6.61472 99.5351 7.15805C99.2704 7.92313 99.1486 8.73039 99.1758 9.53953V10.8228H96.6295V13.3724H99.1756V26.3267H102.59V13.3724H106.341L111.073 26.3547C111.073 26.3547 110.62 27.637 110.5 27.897C110.389 28.1417 110.243 28.3687 110.066 28.5704C109.889 28.7646 109.668 28.9137 109.422 29.0051C109.104 29.1142 108.769 29.1649 108.433 29.1546C108.161 29.1553 107.891 29.1302 107.624 29.0797C107.364 29.0297 107.095 28.9848 106.815 28.945V31.8205C107.556 31.9405 108.306 32.0005 109.057 32C109.819 32.0278 110.577 31.8792 111.273 31.5658C111.837 31.2879 112.333 30.8891 112.726 30.3979C113.131 29.8816 113.464 29.3122 113.715 28.7056C113.984 28.0661 114.259 27.3972 114.539 26.699L120.557 10.8221H116.955Z"
            fill="#003366"></path>
        <path
            d="M44.5833 15.4405C44.5833 18.9673 43.6043 21.6633 41.6464 23.5285C39.6884 25.3937 36.8682 26.3264 33.1859 26.3267H27.2901V4.96356H33.8139C37.2135 4.96356 39.8586 5.87928 41.749 7.71072C43.6395 9.54216 44.5842 12.1188 44.5833 15.4405ZM41.1173 15.5583C41.1173 10.444 38.7257 7.88684 33.9427 7.88684H30.7018V23.3895H33.4021C38.5455 23.3895 41.1173 20.7788 41.1173 15.5573V15.5583Z"
            fill="#003366"></path>
        <path
            d="M59.5164 16.2429C59.2594 15.245 58.8077 14.3077 58.1872 13.4849C57.572 12.68 56.7863 12.0213 55.8865 11.556C54.9191 11.0594 53.8442 10.8087 52.7569 10.8261C51.7697 10.8062 50.7902 11.0048 49.8886 11.4074C48.987 11.8101 48.1854 12.4069 47.5412 13.1553C46.9118 13.8864 46.4267 14.7302 46.1117 15.642C45.7755 16.6016 45.6063 17.6118 45.6116 18.6286C45.5997 19.6951 45.7587 20.7566 46.0825 21.7728C46.3716 22.6813 46.8489 23.5188 47.4833 24.2305C48.1134 24.9251 48.8892 25.4719 49.7552 25.8317C50.735 26.2289 51.7851 26.4235 52.8422 26.4036C53.621 26.4063 54.3961 26.2952 55.1429 26.074C55.8554 25.8654 56.527 25.5369 57.129 25.1025C58.3675 24.203 59.2243 22.8724 59.5308 21.3727H56.4438C56.217 22.1095 55.7616 22.755 55.1436 23.2159C54.5617 23.6259 53.7948 23.8308 52.8429 23.8305C52.2327 23.8465 51.6268 23.7243 51.0705 23.4731C50.5944 23.2501 50.1744 22.9229 49.8419 22.5157C49.5094 22.101 49.2615 21.6252 49.112 21.1151C48.9493 20.5777 48.8674 20.0191 48.869 19.4577H59.7297C59.8647 18.3823 59.7923 17.291 59.5164 16.2429ZM49.9989 14.528C50.3377 14.1717 50.7466 13.8895 51.1998 13.6992C51.6931 13.4939 52.2232 13.3917 52.7574 13.399C53.2762 13.392 53.7896 13.5049 54.2578 13.7286C54.6911 13.9372 55.0795 14.2285 55.401 14.5862C55.7229 14.9515 55.9748 15.3729 56.1441 15.8294C56.2723 16.1793 56.3626 16.5418 56.4137 16.9109H48.9024C48.9482 16.5193 49.0485 16.1361 49.2003 15.7722C49.3889 15.3125 49.6596 14.891 49.9989 14.528Z"
            fill="#003366"></path>
        <path d="M94.8494 6.54557L91.438 5.30397V1.02606L94.8494 2.26766V6.54557Z" fill="#003366"></path>
        <path d="M23.8792 22.078L10.2338 17.1116V0L23.8792 4.9664V22.078Z" fill="#E5E522"></path>
        <path d="M20.4678 31.9999L6.82243 27.0335V9.92188L20.4678 14.8883V31.9999Z" fill="#82D9D9"></path>
        <path d="M13.6452 23.1041L-0.000152588 18.1377V1.02606L13.6452 5.99246V23.1041Z"
            fill="#003366"></path>
    </g>
    <defs>
        <clipPath id="clip0_24021_236717">
            <rect width="120.557" height="32" fill="#003366"></rect>
        </clipPath>
    </defs>
</svg>