<?xml version="1.0" encoding="UTF-8"?><svg id="Layer_2" xmlns="http://www.w3.org/2000/svg" viewBox="0 0 76.22 48.74"><defs><style>.cls-1{stroke:#1b3665;}.cls-1,.cls-2,.cls-3{fill:none;stroke-linecap:round;stroke-linejoin:round;stroke-width:5px;}.cls-2{stroke:#e5e525;}.cls-3{stroke:#87d1d4;}</style></defs><g id="Layer_1-2"><path class="cls-1" d="m23.39,8.5c2.83-3.03,6.72-5.17,11.22-5.81,10.26-1.46,19.77,5.4,21.24,15.33.18,1.24.23,2.47.16,3.68"/><path class="cls-1" d="m56.31,22.08c1.62-.88,3.45-1.37,5.4-1.37,6.64,0,12.02,5.78,12.02,12.91,0,5.06-2.71,9.43-6.65,11.55"/><line class="cls-3" x1="21.81" y1="23.38" x2="67.07" y2="45.17"/><path class="cls-2" d="m25.49,43.37c-2.44,1.79-5.61,2.87-9.07,2.87-7.69,0-13.92-5.31-13.92-11.87s6.23-11.87,13.92-11.87c3.46,0,6.62,1.07,9.05,2.85"/></g></svg>